HIERARCHY
ROOT Hips
{
	OFFSET 0.000000 0.000000 0.000000
	CHANNELS 6 Xposition Yposition Zposition Zrotation Yrotation Xrotation 
	JOINT LHipJoint
	{
		OFFSET 0.000000 0.000000 0.000000
		CHANNELS 3 Zrotation Yrotation Xrotation
		JOINT LeftUpLeg
		{
			OFFSET 1.363060 -1.794630 0.839290
			CHANNELS 3 Zrotation Yrotation Xrotation
			JOINT LeftLeg
			{
				OFFSET 2.448110 -6.726130 0.000000
				CHANNELS 3 Zrotation Yrotation Xrotation
				JOINT LeftFoot
				{
					OFFSET 2.562200 -7.039590 0.000000
					CHANNELS 3 Zrotation Yrotation Xrotation
					JOINT LeftToeBase
					{
						OFFSET 0.157640 -0.433110 2.322550
						CHANNELS 3 Zrotation Yrotation Xrotation
						End Site
						{
							OFFSET 0.000000 0.000000 0.000000
						}
					}
				}
			}
		}
	}
	JOINT RHipJoint
	{
		OFFSET 0.000000 0.000000 0.000000
		CHANNELS 3 Zrotation Yrotation Xrotation
		JOINT RightUpLeg
		{
			OFFSET -1.305520 -1.794630 0.839290
			CHANNELS 3 Zrotation Yrotation Xrotation
			JOINT RightLeg
			{
				OFFSET -2.542530 -6.985550 0.000000
				CHANNELS 3 Zrotation Yrotation Xrotation
				JOINT RightFoot
				{
					OFFSET -2.568260 -7.056230 0.000000
					CHANNELS 3 Zrotation Yrotation Xrotation
					JOINT RightToeBase
					{
						OFFSET -0.164730 -0.452590 2.363150
						CHANNELS 3 Zrotation Yrotation Xrotation
						End Site
						{
							OFFSET 0.000000 0.000000 0.000000
						}
					}
				}
			}
		}
	}
}
MOTION
Frames: 22
Frame Time: 0.008333
-2.499804 16.858561 -1.291644 8.224066 77.213387 19.816220 -10.075293 0.080304 3.590142 -2.851277 -4.712228 -33.729758 -2.175037 0.101335 10.230069 -0.648261 -6.719220 10.503761 -1.645600 0.000000 -35.806101 9.076081 -2.521102 0.473626 9.149216 4.007873 0.853908 2.251767 -1.305225 23.768399 0.126885 4.390511 -10.500077 -0.071300 0.000000 -60.367900
-2.354108 16.866131 -1.265643 10.240014 76.642118 21.731394 -10.041537 0.171498 3.424863 -3.868938 -3.944820 -33.643595 -2.264710 0.144936 11.109825 -0.646534 -6.658985 10.221129 -1.593200 -0.000001 -35.351900 9.315088 -2.613129 0.473547 8.365915 3.673119 -0.002657 1.995991 -1.558588 26.014216 0.085216 3.860797 -9.632443 -0.037900 0.000001 -63.474100
-2.212576 16.876526 -1.239319 12.018276 76.052966 23.407240 -9.986521 0.263039 3.281194 -4.792805 -3.343515 -33.450999 -2.353170 0.172557 11.885654 -0.643272 -6.543255 9.698445 -1.499400 -0.000000 -34.968300 9.571493 -2.692043 0.442805 7.588856 3.218140 -0.987988 1.716963 -1.814541 28.392998 0.035968 3.268446 -8.538032 -0.008000 -0.000000 -66.295900
-2.075358 16.889419 -1.213451 13.519734 75.430914 24.807422 -9.915533 0.354253 3.160141 -5.609609 -2.904463 -33.142445 -2.436252 0.184604 12.537288 -0.634196 -6.347439 8.992458 -1.367800 0.000000 -34.667300 9.838327 -2.751420 0.384513 6.835368 2.666290 -2.093039 1.415523 -2.066218 30.883550 -0.030671 2.573658 -7.228427 0.012100 0.000000 -68.736899
-1.942369 16.904392 -1.188896 14.683848 74.760936 25.876222 -9.836301 0.444396 3.059879 -6.310693 -2.596127 -32.725691 -2.510457 0.182668 13.055799 -0.615979 -6.060474 8.164607 -1.207700 0.000000 -34.447200 10.105235 -2.785776 0.306655 6.134629 2.057810 -3.305036 1.094742 -2.305842 33.459552 -0.126562 1.723820 -5.735974 0.010400 0.000000 -70.607000
-1.813289 16.921121 -1.166437 15.465690 74.029747 26.573738 -9.757158 0.532840 2.976210 -6.894645 -2.371475 -32.218620 -2.573187 0.169084 13.441046 -0.586265 -5.678922 7.276597 -1.030500 -0.000000 -34.296100 10.361834 -2.791271 0.218668 5.515472 1.435105 -4.608440 0.759743 -2.526172 36.091180 -0.263002 0.664744 -4.106917 -0.032800 0.000000 -71.752201
-1.687851 16.939229 -1.146386 15.878684 73.228280 26.913523 -9.683452 0.619469 2.903788 -7.374111 -2.186462 -31.634769 -2.623360 0.145604 13.692071 -0.543302 -5.196378 6.388431 -0.845000 -0.000000 -34.194800 10.602602 -2.765803 0.128299 4.990336 0.828554 -5.986018 0.418592 -2.722194 38.749686 -0.447708 -0.640518 -2.410082 -0.142800 0.000000 -71.967100
-1.565498 16.958373 -1.129213 15.920126 72.349389 26.897037 -9.621928 0.703999 2.836303 -7.756647 -1.984233 -31.003475 -2.660104 0.115241 13.825127 -0.487304 -4.624347 5.544450 -0.661101 -0.000000 -34.127100 10.819684 -2.709901 0.045019 4.581441 0.272743 -7.421287 0.081234 -2.889985 41.402613 -0.685589 -2.222628 -0.722224 -0.347700 0.000000 -71.156500
-1.445788 16.978317 -1.114981 15.637452 71.390658 26.571188 -9.575805 0.786392 2.767857 -8.057922 -1.722435 -30.344973 -2.683794 0.080140 13.854993 -0.419044 -3.971683 4.778763 -0.484000 0.000000 -34.078601 11.010063 -2.626335 -0.025116 4.293868 -0.214229 -8.896606 -0.240970 -3.028936 44.017833 -0.975495 -4.081494 0.866841 -0.668700 0.000000 -69.282700
-1.328246 16.998793 -1.103537 15.090158 70.352181 25.995982 -9.546757 0.866435 2.693310 -8.293412 -1.368318 -29.679436 -2.695661 0.042294 13.801329 -0.340249 -3.253387 4.108694 -0.316900 0.000000 -34.040500 11.171997 -2.520050 -0.078271 4.126517 -0.622326 -10.395010 -0.537097 -3.141084 46.563175 -1.310335 -6.186419 2.262159 -1.111400 -0.000000 -66.389400
-1.212477 17.019646 -1.094565 14.351401 69.238146 25.242138 -9.534627 0.943906 2.609358 -8.478481 -0.905119 -29.020931 -2.697546 0.003222 13.684311 -0.252944 -2.485228 3.537706 -0.160500 0.000000 -34.008900 11.305650 -2.398024 -0.113218 4.069879 -0.951484 -11.899812 -0.798052 -3.231274 49.008961 -1.676585 -8.468895 3.365048 -1.654700 -0.000001 -62.507600
-1.098152 17.040718 -1.087762 13.479318 68.054545 24.367772 -9.539360 1.018023 2.513616 -8.621947 -0.324635 -28.385476 -2.691509 -0.035249 13.529903 -0.159819 -1.690714 3.052751 -0.015200 0.000001 -33.985400 11.410296 -2.267852 -0.130108 4.116662 -1.202841 -13.394493 -1.019740 -3.304580 51.317963 -2.057854 -10.839801 4.121804 -2.256100 -0.000000 -58.074600
-0.985003 17.061904 -1.082677 12.532919 66.811704 23.430429 -9.559413 1.088169 2.405930 -8.731629 0.364282 -27.781430 -2.679690 -0.071851 13.360737 -0.063175 -0.889296 2.632863 0.118700 -0.000000 -33.973599 11.486984 -2.137151 -0.130790 4.253583 -1.382793 -14.863999 -1.201537 -3.366581 53.460389 -2.434607 -13.182333 4.499938 -2.851500 -0.000000 -53.434100
-0.872980 17.083101 -1.078796 11.560465 65.521158 22.477132 -9.592531 1.153702 2.287503 -8.812336 1.142169 -27.214458 -2.664099 -0.105449 13.198745 0.034992 -0.098810 2.250452 0.240900 -0.000000 -33.977900 11.537475 -2.012056 -0.118392 4.466710 -1.500232 -16.296708 -1.346092 -3.421806 55.414482 -2.787030 -15.369824 4.501401 -3.369700 0.000000 -48.918300
-0.762094 17.104201 -1.075648 10.599761 64.197692 21.543397 -9.635957 1.214281 2.160760 -8.867609 1.980923 -26.684002 -2.646213 -0.135227 13.061372 0.133312 0.668331 1.879085 0.350301 -0.000000 -34.002500 11.564354 -1.897044 -0.096873 4.741673 -1.567423 -17.683069 -1.457445 -3.473365 57.164979 -3.096893 -17.280580 4.160316 -3.747700 0.000000 -44.803901
-0.652408 17.125024 -1.072733 9.676320 62.854349 20.654849 -9.686684 1.269773 2.028819 -8.899823 2.850319 -26.190365 -2.627207 -0.160546 12.963272 0.230931 1.403678 1.494353 0.445400 -0.000000 -34.050900 11.570448 -1.794165 -0.070285 5.065675 -1.597029 -19.020782 -1.539773 -3.522739 58.707141 -3.348843 -18.810477 3.524489 -3.940700 0.000001 -41.195600
-0.544181 17.145469 -1.069581 8.814445 61.506655 19.829516 -9.740990 1.320663 1.894355 -8.914496 3.717735 -25.720923 -2.607690 -0.181384 12.908421 0.327779 2.107561 1.083580 0.525600 0.000000 -34.124000 11.560195 -1.704255 -0.043682 5.421617 -1.607374 -20.303457 -1.595947 -3.570972 60.037039 -3.530838 -19.880761 2.661809 -3.933000 -0.000000 -38.173500
-0.437626 17.165327 -1.065731 8.029057 60.165489 19.078962 -9.795381 1.367894 1.759267 -8.918589 4.557719 -25.265393 -2.588227 -0.197838 12.896015 0.424032 2.783053 0.641870 0.590600 -0.000000 -34.222000 11.537836 -1.626060 -0.021291 5.793442 -1.614035 -21.530062 -1.627913 -3.617951 61.155470 -3.635125 -20.446406 1.642910 -3.737701 0.000000 -35.726000
-0.333021 17.184458 -1.060885 7.327698 58.840433 18.405622 -9.847235 1.412679 1.624553 -8.918976 5.354462 -24.811790 -2.569102 -0.210250 12.919473 0.519769 3.434418 0.175009 0.640900 -0.000000 -34.344000 11.507287 -1.558228 -0.005469 6.167112 -1.629568 -22.698484 -1.636419 -3.663132 62.061222 -3.658410 -20.497816 0.545345 -3.395100 0.000000 -33.848700
-0.230538 17.202706 -1.054731 6.714043 57.537071 17.808282 -9.894447 1.456422 1.489492 -8.923793 6.103322 -24.348666 -2.550803 -0.219084 12.966944 0.614748 4.065385 -0.302680 0.677900 0.000000 -34.488900 11.472261 -1.498518 0.002443 6.529037 -1.662825 -23.806940 -1.621935 -3.705637 62.753580 -3.602420 -20.061097 -0.555080 -2.961300 -0.000000 -32.549000
-0.130272 17.219970 -1.047053 6.186177 56.257013 17.282581 -9.935772 1.500532 1.352724 -8.940830 6.809921 -23.868982 -2.534001 -0.224961 13.024086 0.708265 4.677626 -0.771650 0.703700 -0.000000 -34.655500 11.435701 -1.444455 0.003141 6.868329 -1.717956 -24.856440 -1.585146 -3.744221 63.231801 -3.474317 -19.195495 -1.589266 -2.496300 -0.000000 -31.847300
-0.032173 17.236222 -1.037761 5.735532 54.999049 16.819387 -9.971393 1.545935 1.211772 -8.973913 7.491211 -23.370718 -2.519541 -0.228310 13.077503 0.798781 5.267083 -1.211230 0.720899 -0.000000 -34.844400 11.398986 -1.393532 -0.001324 7.180690 -1.793167 -25.848345 -1.527529 -3.777256 63.495855 -3.287273 -17.991586 -2.502170 -2.051701 -0.000000 -31.759400
